<svg xmlns="http://www.w3.org/2000/svg" width="220" height="220" viewBox="0 0 220 220" role="img" aria-labelledby="title desc">
  <title id="title">UPI QR placeholder</title>
  <desc id="desc">Placeholder QR code. Replace this file with the real UPI QR image before launch.</desc>
  <rect width="220" height="220" fill="#ffffff"/>
  <g fill="#111827">
    <rect x="24" y="24" width="52" height="52" fill="#111827"/>
    <rect x="32" y="32" width="36" height="36" fill="#ffffff"/>
    <rect x="40" y="40" width="20" height="20" fill="#111827"/>
    <rect x="144" y="24" width="52" height="52" fill="#111827"/>
    <rect x="152" y="32" width="36" height="36" fill="#ffffff"/>
    <rect x="160" y="40" width="20" height="20" fill="#111827"/>
    <rect x="24" y="144" width="52" height="52" fill="#111827"/>
    <rect x="32" y="152" width="36" height="36" fill="#ffffff"/>
    <rect x="40" y="160" width="20" height="20" fill="#111827"/>
    <rect x="88" y="24" width="12" height="12"/>
    <rect x="108" y="24" width="12" height="12"/>
    <rect x="88" y="44" width="12" height="12"/>
    <rect x="108" y="44" width="12" height="12"/>
    <rect x="88" y="64" width="28" height="12"/>
    <rect x="76" y="84" width="12" height="12"/>
    <rect x="96" y="84" width="12" height="12"/>
    <rect x="116" y="84" width="12" height="12"/>
    <rect x="136" y="84" width="12" height="12"/>
    <rect x="24" y="104" width="52" height="12"/>
    <rect x="84" y="104" width="12" height="12"/>
    <rect x="140" y="104" width="12" height="12"/>
    <rect x="160" y="104" width="36" height="12"/>
    <rect x="24" y="124" width="12" height="12"/>
    <rect x="44" y="124" width="12" height="12"/>
    <rect x="104" y="124" width="12" height="12"/>
    <rect x="124" y="124" width="12" height="12"/>
    <rect x="160" y="124" width="12" height="12"/>
    <rect x="180" y="124" width="16" height="12"/>
    <rect x="144" y="144" width="12" height="12"/>
    <rect x="164" y="144" width="12" height="12"/>
    <rect x="184" y="144" width="12" height="12"/>
    <rect x="144" y="164" width="12" height="12"/>
    <rect x="108" y="164" width="12" height="12"/>
    <rect x="128" y="164" width="12" height="12"/>
    <rect x="180" y="164" width="16" height="12"/>
    <rect x="84" y="184" width="12" height="12"/>
    <rect x="108" y="184" width="12" height="12"/>
    <rect x="144" y="184" width="28" height="12"/>
    <rect x="24" y="164" width="28" height="12"/>
    <rect x="60" y="164" width="12" height="12"/>
    <rect x="24" y="184" width="12" height="12"/>
    <rect x="44" y="184" width="12" height="12"/>
  </g>
  <g fill="#374151" font-family="Arial, Helvetica, sans-serif" font-size="13" font-weight="600" text-anchor="middle">
    <text x="110" y="46">Replace with</text>
    <text x="110" y="63">your UPI QR</text>
  </g>
</svg>